<svg width="150" height="66" viewBox="0 0 150 66" fill="none" xmlns="http://www.w3.org/2000/svg">
<path fill-rule="evenodd" clip-rule="evenodd" d="M112.025 30.6413C113.176 30.6413 114.182 30.8474 114.855 31.2573V35.7278C114.855 39.3764 113.559 41.6901 111.019 41.6901C108.478 41.6901 107.422 39.4279 107.422 36.4983C107.422 33.3626 109.051 30.6391 112.025 30.6391V30.6413ZM128.613 30.4375C131.345 30.4375 132.16 32.8542 132.16 34.1891V34.4982H124.871C124.968 32.5451 125.925 30.4375 128.61 30.4375H128.613ZM94.8618 28.2784V30.7959H97.1161L97.0687 41.6923H95.1033V44.1583H102.247V41.6923H100.282L100.329 28.2784H94.8641H94.8618ZM91.0731 28.0208C88.9159 28.0208 87.2867 29.7678 86.7113 32.749V32.6459C86.8557 31.105 86.8557 29.4587 86.8557 28.2761H81.5822V30.7936H83.8365L83.7891 41.6901H81.9681V44.1561H89.1596V41.6901H87.0024L87.0498 36.7044C87.0498 33.8778 88.248 31.0512 91.0776 31.0512C91.7478 31.0512 92.1811 31.1027 92.5647 31.2573L92.9009 28.2761C92.6143 28.1216 91.8471 28.0186 91.0799 28.0186L91.0731 28.0208ZM144.004 27.9178C140.696 27.9178 137.627 29.2034 137.627 32.955C137.627 35.9877 140.121 36.8612 142.423 37.3248L144.819 37.7884C146.017 38.046 146.929 38.4559 146.929 39.793C146.929 41.3855 145.442 42.0552 143.957 42.0552C142.328 42.0552 141.369 41.5916 140.793 41.4392L140.746 39.2801H137.869L137.916 43.5984C138.828 43.959 140.793 44.5234 143.287 44.5234C146.595 44.5234 150 43.4438 150 39.2286C150 35.9899 148.082 35.2709 146.403 34.9103L142.759 34.1398C141.847 33.9338 140.841 33.5754 140.841 32.3413C140.841 30.8004 142.375 30.4398 143.862 30.4398C145.157 30.4398 145.875 30.6973 146.308 30.9527L146.356 32.8542H149.233L149.185 28.9481C148.323 28.639 146.405 27.92 144.007 27.92L144.004 27.9178ZM128.804 27.9178C124.009 27.9178 121.468 31.5664 121.468 36.2945C121.468 41.2802 124.44 44.5189 129.332 44.5189C131.587 44.5189 133.552 43.903 134.606 43.4394L134.75 40.6643C133.455 41.3317 131.826 41.8469 130.005 41.8469C127.033 41.8469 124.923 39.8938 124.876 36.8096H135.52V36.346C135.52 31.4118 133.266 27.9178 128.807 27.9178H128.804ZM74.8194 24.4753L71.5587 24.6813L71.5113 28.2784H69.2097V30.7959H71.5113C71.464 33.5709 71.4143 37.5801 71.4143 39.6362C71.4143 43.2333 72.6125 44.5189 75.7762 44.5189C77.0218 44.5189 78.2696 44.1583 79.0842 43.7484L79.1813 41.2309C78.5111 41.54 77.552 41.8469 76.6878 41.8469C75.2008 41.8469 74.6253 41.1279 74.6253 38.1983C74.6253 35.8331 74.6253 33.3671 74.6727 30.7981H78.9398V28.2806H74.6727L74.8171 24.4775L74.8194 24.4753ZM60.5334 22.4191C56.3137 22.4191 53.0056 24.4753 53.0056 28.6905C53.0056 32.0837 55.0681 33.5732 57.3201 34.2406L60.917 35.3202C63.0268 35.9361 63.9858 36.6058 63.9858 38.3528C63.9858 40.615 62.307 41.8469 59.7661 41.8469C58.1369 41.8469 56.6973 41.4348 56.1219 41.0764V38.2498H52.9086V43.3901C54.6348 44.1606 58.1821 44.5212 59.6691 44.5212C64.4146 44.5212 67.3413 42.0552 67.3413 37.7884C67.3413 34.0368 64.8478 32.6997 62.5462 32.0322L59.4773 31.1587C57.6563 30.6951 56.3137 30.0276 56.3137 28.1776C56.3137 26.5336 57.5593 25.0934 60.5807 25.0934C62.1152 25.0934 63.1216 25.454 63.5526 25.6578V28.1753H66.6215V23.4472C65.087 22.9836 63.1216 22.4191 60.5334 22.4191ZM112.312 20.6721V23.1896H114.997V28.2784C114.085 28.0723 113.079 27.9178 112.025 27.9178C106.943 27.9178 104.019 31.7209 104.019 36.9642C104.019 41.6923 106.657 44.5189 110.251 44.5189C112.792 44.5189 114.421 43.081 115.189 40.9219H115.286C115.141 41.8469 114.999 43.0295 114.999 44.1606H120.033V41.6946H118.021L118.118 20.6744H112.316L112.312 20.6721ZM98.6957 20.3115C97.4501 20.3115 96.491 21.3396 96.491 22.6767C96.491 24.0139 97.4501 24.9904 98.6957 24.9904C99.9413 24.9904 100.9 23.9623 100.9 22.6767C100.9 21.3911 99.9413 20.3115 98.6957 20.3115Z" fill="black"/>
<path fill-rule="evenodd" clip-rule="evenodd" d="M38.6362 41.7806L38.5888 41.7291C38.494 41.6776 38.397 41.5746 38.3022 41.523L30.6526 36.0177H30.6052L26.4464 32.9828H26.4938L16.502 25.8312L8.99676 20.4289C8.47099 19.9653 7.61125 18.9372 7.61125 17.4455C7.61125 15.3872 9.18856 14.3591 9.18856 14.3591L19.9928 6.89848C20.2794 6.69242 20.6133 6.5894 20.9496 6.5894C21.3309 6.5894 21.6671 6.69242 21.9063 6.89848H21.9537L25.4919 9.36895L32.5684 14.2068C33.0942 14.5159 33.5252 14.9796 33.8591 15.544C33.8591 15.5955 33.9065 15.647 33.9065 15.6985H33.9539C34.1931 16.1622 34.3353 16.7288 34.3353 17.4478C34.3353 17.8084 34.3353 18.1175 34.2405 18.375C34.0487 19.1993 33.5703 19.9182 32.9497 20.4334C32.9024 20.4849 32.855 20.4849 32.855 20.5364L25.158 26.0933L30.6571 30.0554L37.447 25.1145L38.6903 24.2388C39.0717 23.9812 39.5027 23.5176 39.6945 23.26C39.7419 23.26 39.7419 23.2085 39.7419 23.2085C39.7893 23.157 39.8367 23.1054 39.8367 23.1054C41.1748 21.6138 41.9397 19.5554 41.9397 17.4455C41.9397 17.188 41.9397 16.9304 41.8923 16.6728C41.7005 14.0478 40.315 11.6826 38.212 10.2917H38.1646L28.985 3.96215L25.352 1.44017C24.0613 0.512907 22.5788 0 20.9541 0C19.616 0 18.3726 0.360602 17.224 1.02805C16.9375 1.1826 16.6035 1.38866 16.3147 1.64623L6.22575 8.59175L3.73906 10.2895C3.64428 10.3925 3.49987 10.444 3.40509 10.5471C1.34263 12.0903 0.00451305 14.5607 0.00451305 17.4411C0.00451305 20.3214 1.29524 22.6888 3.30355 24.2343L3.35094 24.2858C3.44571 24.3373 3.54274 24.3888 3.63752 24.4919L11.3345 29.9972L15.4933 32.9806L25.4378 40.1837L32.943 45.586C33.4688 46.0496 34.3285 47.0262 34.3285 48.5201C34.3285 50.6299 32.7512 51.658 32.7512 51.658L21.9469 59.1186C21.6604 59.3247 21.3738 59.4277 20.9902 59.4277C20.6562 59.4277 20.32 59.3247 20.0334 59.1186L16.4478 56.5967L9.37134 51.8103C8.84557 51.4497 8.41457 50.9861 8.08061 50.4216C8.08061 50.4216 8.03322 50.3701 8.03322 50.3186C7.79403 49.855 7.60223 49.239 7.60223 48.5178C7.60223 48.2088 7.64961 47.8997 7.697 47.6421C7.8888 46.7663 8.36719 46.0474 8.98773 45.5837C9.03512 45.5322 9.08251 45.4807 9.13215 45.4807L16.8291 39.9239L11.33 35.9617L4.54012 40.8511L3.24939 41.7784C2.91543 42.0359 2.48443 42.4996 2.24524 42.7549C2.24524 42.7549 2.19785 42.7549 2.19785 42.8064C2.15047 42.8579 2.10308 42.9095 2.10308 42.9095C0.764961 44.4011 0 46.408 0 48.5694C0 48.8269 0.047387 49.0845 0.047387 49.3421C0.286578 51.9671 1.6247 54.3323 3.72778 55.7232H3.77516L12.9547 62.0527L16.6351 64.5747C17.8784 65.4505 19.361 65.9634 20.9857 65.9634C22.3238 65.9634 23.6145 65.6028 24.7157 64.9868C25.0497 64.8323 25.3362 64.5747 25.6251 64.3687L35.714 57.4232L38.2007 55.7254V55.6739C38.3451 55.6224 38.4399 55.5709 38.5346 55.4678C40.5903 53.9246 41.9285 51.4027 41.9285 48.5738C41.9285 45.745 40.6377 43.3261 38.6294 41.7806" fill="#009D69"/>
</svg>
